PathFileType	4	(X/Y/Z)	C:/Users/opensim2020/Desktop/walking_exp_matlab/subject03_walking11_straight_03.trc																																																																																																																																								
DataRate	CameraRate	NumFrames	NumMarkers	Units	OrigDataRate	OrigDataStartFrame	OrigNumFrames																																																																																																																																				
100	100	6	46	mm	100	3072	380																																																																																																																																				
Frame#	Time	LFHD			RFHD			LBHD			RBHD			C7			T10			CLAV			STRN			RBAK			LSHO			LUPA			LELB			LFRM			LWRA			LWRB			LFIN			RSHO			RUPA			RELB			RFRM			RWRA			RWRB			RFIN			LASI			RASI			LPSI			RPSI			LTHI			LKNE			LTIB			LANK			LHEE			LTOE			RTHI			RKNE			RTIB			RANK			RHEE			RTOE			*39			*40			*41			*42			*43			*44			*45		
		X1	Y1	Z1	X2	Y2	Z2	X3	Y3	Z3	X4	Y4	Z4	X5	Y5	Z5	X6	Y6	Z6	X7	Y7	Z7	X8	Y8	Z8	X9	Y9	Z9	X10	Y10	Z10	X11	Y11	Z11	X12	Y12	Z12	X13	Y13	Z13	X14	Y14	Z14	X15	Y15	Z15	X16	Y16	Z16	X17	Y17	Z17	X18	Y18	Z18	X19	Y19	Z19	X20	Y20	Z20	X21	Y21	Z21	X22	Y22	Z22	X23	Y23	Z23	X24	Y24	Z24	X25	Y25	Z25	X26	Y26	Z26	X27	Y27	Z27	X28	Y28	Z28	X29	Y29	Z29	X30	Y30	Z30	X31	Y31	Z31	X32	Y32	Z32	X33	Y33	Z33	X34	Y34	Z34	X35	Y35	Z35	X36	Y36	Z36	X37	Y37	Z37	X38	Y38	Z38	X39	Y39	Z39	X40	Y40	Z40	X41	Y41	Z41	X42	Y42	Z42	X43	Y43	Z43	X44	Y44	Z44	X45	Y45	Z45	X46	Y46	Z46
																																																																																																																																											
333	3.32	1300.48706	1617.59668	1350.67334	1309.41321	1628.00122	1483.66541	1173.16089	1572.95142	1366.30688	1187.04443	1583.04163	1496.01831	1147.44434	1420.39917	1436.5271	1107.64038	1107.01672	1450.55811	1266.63123	1340.03662	1422.99731	1305.86743	1174.98828	1419.06885	1104.48645	1250.3606	1546.21021	1202.55835	1373.38416	1273.34558	1171.2782	1174.79785	1209.07361	1169.36475	1051.20215	1200.05396	1191.47827	923.02191	1203.19934	1209.40906	806.09113	1236.83008	1183.91858	810.20337	1186.4563	1198.27222	726.79309	1199.07935	1244.71533	1369.86023	1585.77222	1283.02344	1154.53247	1666.95813	1318.93262	1048.30505	1681.3197	1360.77087	917.69336	1685.43787	1400.56628	827.36389	1648.63049	1379.20605	820.59924	1698.44971	1413.99597	754.41431	1687.19409	1267.28577	943.55151	1319.58936	1289.71692	943.90302	1556.41394	1109.30676	958.17413	1381.68042	1124.76965	972.81488	1530.08521	1293.25452	651.03967	1266.83252	1359.15686	484.27371	1292.88098	1295.31946	295.6759	1301.03113	1260.78723	90.72015	1344.98389	1220.89819	56.99609	1389.07361	1401.08533	47.35872	1347.29846	1222.04199	648.26123	1592.60364	1217.63855	468.95679	1554.24609	1152.96594	287.26114	1556.09509	1100.99536	77.92255	1504.04028	1053.98169	48.02699	1454.52698	1240.39185	37.00858	1486.56726	1221.34119	1679.18286	1405.24817	NaN	NaN	NaN	NaN	NaN	NaN	NaN	NaN	NaN	NaN	NaN	NaN	NaN	NaN	NaN	NaN	NaN	NaN
334	3.33	1307.77869	1616.93872	1349.84583	1316.90137	1627.41101	1482.8186	1180.50415	1572.53101	1365.67834	1194.49744	1582.65942	1495.45447	1154.60852	1420.01978	1436.30212	1114.34595	1106.69202	1449.98523	1273.61816	1339.47168	1422.44971	1312.57507	1174.34534	1418.63721	1111.59546	1250.08264	1546.18079	1208.90625	1372.81384	1272.94299	1176.04138	1174.16626	1208.96741	1173.93433	1050.83948	1199.99683	1195.6886	922.41626	1203.4165	1213.53149	805.55109	1237.14783	1187.93201	809.57947	1186.89038	1202.36365	726.2663	1199.50464	1252.33643	1369.40833	1585.19666	1291.61072	1154.36316	1666.401	1328.17822	1048.33582	1680.49219	1371.11865	918.1106	1684.15356	1411.54492	828.31274	1646.91748	1390.52051	821.17334	1696.64795	1425.89355	755.40112	1685.14685	1274.19812	942.76233	1319.31665	1295.89136	943.20691	1556.28247	1116.06348	957.85706	1380.99695	1131.03003	972.42969	1529.41711	1299.53186	650.13824	1266.74292	1366.71118	484.13797	1293.90466	1310.83032	293.25055	1301.48169	1286.6842	86.67195	1345.02136	1248.10754	51.35049	1389.25562	1428.64539	48.6468	1347.21033	1226.04761	648.00244	1592.33472	1219.89294	468.76788	1554.21631	1154.10205	287.5571	1556.13562	1100.66077	78.1026	1503.57849	1053.80188	48.74334	1454.45862	1240.41455	36.95108	1486.6001	1228.79932	1678.47754	1404.01489	NaN	NaN	NaN	NaN	NaN	NaN	NaN	NaN	NaN	NaN	NaN	NaN	NaN	NaN	NaN	NaN	NaN	NaN
335	3.34	1314.97632	1616.19641	1348.953	1324.37024	1626.78564	1481.92896	1187.68091	1571.87622	1365.02783	1201.9364	1582.20142	1494.78052	1161.63928	1419.49121	1435.93335	1121.06604	1106.25427	1449.33032	1280.5813	1338.81567	1421.80969	1319.33655	1173.68225	1418.2218	1118.75085	1249.73572	1545.94775	1215.3811	1372.22217	1272.49402	1181.17542	1173.71057	1208.73657	1178.64209	1050.28503	1199.84778	1200.15356	921.83832	1203.57104	1217.83618	804.85669	1237.43079	1191.87927	808.76752	1187.62085	1206.54065	725.71179	1199.94177	1259.87891	1368.8877	1584.5863	1300.10583	1154.17554	1665.8396	1337.26489	1048.28308	1679.70642	1381.24524	918.45435	1682.7655	1422.19519	829.11151	1644.96753	1401.45459	821.15149	1694.51062	1437.62158	756.33606	1682.91956	1281.22864	942.02234	1319.09167	1302.17273	942.61078	1556.17017	1122.88147	957.12592	1380.02966	1137.32007	971.99091	1528.66467	1305.08777	648.82513	1266.81494	1373.42334	483.40961	1295.24731	1326.073	291.06143	1302.13928	1311.67029	83.07923	1345.02002	1274.92419	46.73208	1389.25	1455.56409	50.03505	1347.24841	1230.09485	647.73608	1592.15186	1222.32288	468.63062	1554.2439	1155.17944	287.81345	1556.09827	1100.82251	78.59656	1503.5603	1053.89929	49.44119	1454.31067	1240.24768	36.74955	1486.52869	1235.3374	1679.08618	1408.7135	NaN	NaN	NaN	NaN	NaN	NaN	NaN	NaN	NaN	NaN	NaN	NaN	NaN	NaN	NaN	NaN	NaN	NaN
336	3.35	1322.27905	1615.45923	1348.05505	1331.81702	1626.15466	1480.98792	1194.94421	1571.39832	1364.40637	1209.33948	1581.67004	1494.06104	1168.77393	1419.03601	1435.56445	1127.82935	1105.8855	1448.58264	1287.65735	1338.19849	1421.23999	1326.12402	1172.99329	1417.73901	1125.85181	1249.70776	1545.87793	1221.9165	1371.58008	1271.92566	1186.32153	1173.1427	1208.56482	1183.33728	1049.48267	1199.79736	1204.7627	921.14532	1203.90527	1222.12744	804.32739	1237.92249	1196.07581	808.04407	1188.12329	1210.82813	725.1239	1200.30042	1267.2937	1368.32825	1583.9718	1310.66516	1154.78076	1666.75208	1346.04553	1048.04846	1678.59375	1391.21143	918.67365	1681.29333	1432.74329	829.94379	1643.07019	1412.2937	821.27539	1692.19934	1449.0979	757.21484	1680.62354	1288.24438	941.13477	1318.70251	1308.42908	941.99506	1555.93762	1129.70691	956.539	1379.15625	1143.7041	971.5929	1527.81958	1310.30737	647.21741	1266.54333	1379.8208	482.43021	1296.62732	1340.79626	289.12531	1302.92358	1336.37781	80.44947	1344.76746	1301.10791	43.00449	1389.01428	1481.72205	51.3392	1347.29382	1234.28235	647.53662	1591.96021	1224.86707	468.47351	1554.26001	1156.32031	288.07852	1555.97815	1101.20483	79.1855	1503.82703	1054.04797	50.37394	1454.08948	1240.59448	36.93742	1486.85974	1243.65381	1677.52405	1402.42273	NaN	NaN	NaN	NaN	NaN	NaN	NaN	NaN	NaN	NaN	NaN	NaN	NaN	NaN	NaN	NaN	NaN	NaN
337	3.36	1329.14063	1614.5968	1346.6272	1339.26392	1625.51147	1480.06311	1202.12512	1570.6897	1363.76843	1216.7478	1581.1604	1493.36194	1175.98389	1418.4679	1435.07739	1134.64954	1105.32446	1447.75269	1294.71436	1337.5155	1420.61548	1332.98181	1172.24011	1417.23047	1132.85742	1249.13074	1545.37341	1228.58813	1370.93677	1271.37683	1191.70642	1172.60657	1208.33313	1188.50781	1048.90796	1199.77356	1209.4375	920.40314	1203.77136	1226.78088	803.43481	1238.11438	1200.43066	807.33533	1188.49316	1215.12659	724.45697	1200.60938	1274.71143	1367.70728	1583.30542	1316.52954	1153.3833	1664.38306	1354.72351	1047.83203	1677.64624	1400.94641	918.79639	1679.68384	1443.07898	830.62	1640.93115	1422.97314	821.69287	1690.35828	1460.23706	757.90521	1678.07092	1295.29773	940.18549	1318.23206	1314.80408	941.42834	1555.64868	1136.62671	955.84198	1378.16309	1150.12549	971.12286	1526.96375	1314.9093	645.271	1266.60938	1386.03113	481.47757	1297.8783	1354.63013	287.37396	1303.82788	1360.30859	78.40089	1344.43652	1326.49292	40.34992	1388.70776	1507.18164	52.57629	1347.41003	1238.58154	647.3725	1591.8927	1227.68237	468.39325	1554.35767	1157.65723	288.38879	1555.86084	1101.34326	79.70586	1503.60669	1054.22864	51.25368	1453.84644	1240.61755	36.8725	1486.93481	1250.1698	1677.73889	1406.59143	NaN	NaN	NaN	NaN	NaN	NaN	NaN	NaN	NaN	NaN	NaN	NaN	NaN	NaN	NaN	NaN	NaN	NaN
338	3.37	1336.72107	1613.91553	1346.1897	1346.6781	1624.83398	1479.15076	1209.36365	1570.01428	1362.99768	1224.17822	1580.65967	1492.63013	1183.14185	1417.8562	1434.55188	1141.48914	1104.74988	1446.87061	1301.84265	1336.84949	1419.98071	1339.95251	1171.51575	1416.65576	1139.95874	1248.60498	1544.84045	1235.32434	1370.21082	1270.76501	1197.31873	1171.83496	1208.12781	1193.44531	1048.276	1199.82776	1214.41003	919.67804	1203.86279	1231.61584	802.88342	1238.27539	1204.94312	806.64252	1188.76782	1219.52979	723.74634	1200.875	1282.0542	1367.02173	1582.60571	1324.52393	1152.83765	1663.50708	1363.22205	1047.51294	1676.64758	1410.47656	918.8866	1678.02966	1453.01025	831.07312	1638.52234	1433.31848	821.91351	1688.16321	1471.18701	758.68774	1675.58911	1302.46887	939.19623	1317.7157	1321.23657	940.8537	1555.32739	1143.51099	955.51306	1377.49231	1156.58411	970.68353	1526.0575	1319.43054	643.32288	1266.65845	1391.69434	480.25146	1299.35718	1367.66724	286.01416	1304.54248	1383.46118	77.11472	1343.92273	1350.95874	38.70822	1388.29102	1531.51685	53.62101	1347.47876	1242.98047	647.08429	1591.65149	1230.58313	468.18213	1554.26746	1159.05798	288.75418	1555.76233	1101.47058	80.17218	1503.47473	1054.35986	52.10367	1453.6167	1240.67334	36.82535	1487.02393	1258.44226	1676.32336	1400.4342	NaN	NaN	NaN	NaN	NaN	NaN	NaN	NaN	NaN	NaN	NaN	NaN	NaN	NaN	NaN	NaN	NaN	NaN
